<?xml version="1.0" encoding="UTF-8"?>
<svg id="_x31_7.home" xmlns="http://www.w3.org/2000/svg" version="1.1" viewBox="0 0 512 512">
  <!-- Generator: Adobe Illustrator 29.5.0, SVG Export Plug-In . SVG Version: 2.1.0 Build 137)  -->
  <defs>
    <style>
      .st0 {
        fill: #fff;
      }

      .st1 {
        fill: #0094ff;
      }
    </style>
  </defs>
  <path class="st1" d="M255.7,56.5h0c-87.5,0-158.4,70.9-158.1,158.6,0,29.7,8.2,57.5,22.6,81.4,6.8,11.1,117.6,150.5,117.6,150.5,4.6,5.9,11.3,8.8,18.1,8.8,6.8,0,13.5-2.9,18.1-8.8,0,0,110.8-139.4,117.6-150.5,14.4-23.9,22.6-51.7,22.6-81.4.3-87.7-70.6-158.6-158.1-158.6h-.4Z"/>
  <path class="st0" d="M347.3,211c-1.8,4.7-5.3,8.4-10.5,9.5-2.1.5-4.5-1.6-7.1-2.6,0,.8-.3,2.1-.3,3.4v73.3c0,7.4-3.2,10.8-10.8,10.8h-30.7c-6.8,0-10-3.2-10-10.2v-55.1h-40.7c0,1.3-.3,2.6-.3,3.9v49.9c0,7.9-3.2,11.3-11.3,11.3h-28.9c-6.3,0-9.7-3.4-9.7-9.7v-79.8c-2.6,2.1-4.2,3.7-6,5.3-4.7,3.9-9.5,2.9-14.4-2.9-3.7-4.2-3.7-8.9.5-12.6,13.4-12.3,26.8-24.4,40.2-36.8,12.1-11,23.9-22.1,36-33.1,1.8-1.6,3.7-3.4,5.5-5,4.7-4.2,10-4.2,15,0,8.7,7.6,17.3,15.2,26,22.8,17.9,15.5,35.4,31,53.3,46.7,3.2,2.9,6,6.3,4.2,11h0Z"/>
</svg>